<svg width="20" height="19" viewBox="0 0 20 19" fill="none" xmlns="http://www.w3.org/2000/svg">
<path d="M15.874 14.7226L16.294 14.1312L15.5696 14.169C15.4332 14.1761 15.2958 14.1797 15.1575 14.1797C10.919 14.1797 7.49137 10.7926 7.49137 6.62457C7.49137 5.01466 8.00193 3.52297 8.87273 2.29707L9.29281 1.70568L8.5684 1.74347C4.15965 1.97345 0.649123 5.57279 0.649123 9.98869C0.649123 14.5534 4.4002 18.2456 9.01705 18.2456C11.8528 18.2456 14.3605 16.8532 15.874 14.7226Z" stroke="#212936" stroke-width="0.701754"/>
<path d="M15.7999 5.30394C16.3352 5.02187 16.7671 4.58808 17.0463 4.06866C17.3308 4.59928 17.7693 5.02639 18.2936 5.30312C17.7582 5.58522 17.3263 6.0191 17.0471 6.53862C16.7626 6.00793 16.3241 5.58075 15.7999 5.30394Z" stroke="#212936" stroke-width="0.701754"/>
<path d="M12.8015 2.09528C13.0991 1.91021 13.3482 1.66119 13.5322 1.37052C13.7189 1.66571 13.9705 1.91233 14.2637 2.09463C13.9661 2.27972 13.7169 2.52879 13.533 2.81953C13.3463 2.5243 13.0947 2.27763 12.8015 2.09528Z" stroke="#212936" stroke-width="0.701754"/>
</svg>
