<svg width="16" height="6" viewBox="0 0 16 6" fill="none" xmlns="http://www.w3.org/2000/svg">
<path d="M7.90225 1.09774C7.77192 0.967419 7.56126 0.967419 7.43093 1.09774L3.99999 4.52867L0.569062 1.09774C0.438737 0.967419 0.228069 0.967419 0.097744 1.09774C-0.0325813 1.22807 -0.0325813 1.43874 0.097744 1.56906L3.76434 5.23565C3.82934 5.30065 3.91466 5.33332 4.00001 5.33332C4.08535 5.33332 4.17067 5.30065 4.23567 5.23565L7.90227 1.56906C8.03258 1.43874 8.03258 1.22807 7.90225 1.09774Z" fill="#109CF1"/>
<path d="M8.09775 4.90226C8.22808 5.03258 8.43874 5.03258 8.56907 4.90226L12 1.47133L15.4309 4.90226C15.5613 5.03258 15.7719 5.03258 15.9023 4.90226C16.0326 4.77193 16.0326 4.56126 15.9023 4.43094L12.2357 0.764345C12.1707 0.699346 12.0853 0.666676 12 0.666676C11.9147 0.666676 11.8293 0.699346 11.7643 0.764345L8.09773 4.43094C7.96742 4.56126 7.96742 4.77193 8.09775 4.90226Z" fill="#109CF1"/>
</svg>
