<svg xmlns:svg="http://www.w3.org/2000/svg" xmlns="http://www.w3.org/2000/svg" xmlns:xlink="http://www.w3.org/1999/xlink" viewBox="0 0 133.151 120.754" overflow="visible">
  <defs>
    <radialGradient r="120.088" id="b" gradientUnits="userSpaceOnUse" gradientTransform="matrix(-1,0,0,-1,140.383,123.032)" cy="24.221" cx="39.756">
      <stop offset="0" stop-color="#e88080"/>
      <stop offset=".618" stop-color="#de4848"/>
      <stop offset="1" stop-color="#d82a2a"/>
    </radialGradient>
    <linearGradient y2="583.931" y1="583.931" x2="-266.236" x1="-268.138" id="a" gradientUnits="userSpaceOnUse" gradientTransform="matrix(0,12.2047,12.2047,0,-7060.14,3307.92)">
      <stop offset="0" stop-color="#919191"/>
      <stop offset=".006" stop-color="#919191"/>
      <stop offset="1" stop-color="#bf0d00"/>
    </linearGradient>
    <radialGradient xlink:href="#b" id="c" gradientUnits="userSpaceOnUse" gradientTransform="matrix(-1,0,0,-1,140.383,123.032)" cx="39.756" cy="24.221" r="120.088"/>
    <linearGradient xlink:href="#a" id="d" gradientUnits="userSpaceOnUse" gradientTransform="matrix(0,12.2047,12.2047,0,-7060.14,3307.92)" x1="-268.138" y1="583.931" x2="-266.236" y2="583.931"/>
  </defs>
  <g transform="matrix(-0.96221313,0,0,-0.96221313,131.47243,118.74174)">
    <path d="M67.697 119.816c34.942 0 61.557-25.644 64.317-60.226 1.58-19.809-.918-40.315-10.865-57.748-2.611-1.459-10.149 0-13.112 0-2.762 0-9.751-1.393-11.364 1.805-2.679 5.304.127 14.024 1.094 19.446 1.58 8.87 2.682 17.375 1.955 26.402-1.055 13.087-5.894 24.534-19.752 27.513-11.812 2.534-29.275 2.516-38.254-6.962-10.009-10.56-9.025-29.173-6.17-42.251 1.498-6.867 5.557-16.31 3.709-23.4C38.152.16 29.883 1.76 26.766 1.724 22.368 1.669 13.742-.486 11.5 3.723 6.034 13.971 2.801 24.95 1.681 36.504c-2.077 21.434.329 43.468 14.701 60.471 12.653 14.969 31.89 22.841 51.315 22.841" fill="url(#c)"/>
    <path d="M131.271 37.805c-.921-9.047-2.576-18.107-5.783-26.644-.451-1.198-3.217-9.319-4.482-9.319h-5.464c-7.674 0-19.95-3.54-19.67 7.253.196 7.574 2.227 15.067 3.336 22.535.972 6.537.015 6.175 6.214 6.175h25.849m-97.403 0c.879-9.923 4.827-19.351 5.59-29.268.528-6.865-2.948-6.692-8.424-6.762-6.071-.075-12.141-.15-18.215-.229-1.897-.021-5.837 12.645-6.427 14.433-2.328 7.068-3.79 14.417-4.478 21.826h31.954" fill="#e5e5e5"/>
    <path d="M133.151 52.608c0-10.226-.443-20.501-2.961-30.46-1.778-7.036-4.261-21.252-12.984-21.252-5.15 0-12.748-1.488-17.681 0-8.931.117-2.733 21.604-1.993 25.854 2.313 13.259 4.679 35.693-7.748 45.308-9.198 7.116-26.049 6.385-36.661 3.605-14.101-3.694-17.855-16.999-18.438-30.15-.482-10.933 2.844-21.026 4.875-31.644.629-3.289 1.903-8.387-.223-11.428C37.755.184 33.678.863 31.339.834c-3.758-.05-17.574-2.428-19.856 1.079-5.478 8.402-8.478 19.782-9.991 29.59-2.938 19.016-2.112 39.8 7.687 56.819 14.843 25.779 46.697 37.219 75.123 30.58 30.927-7.221 48.849-35.539 48.849-66.294m-1.727 0c0 34.868-23.729 64.123-59.447 66.145C37.28 120.713 6.675 96.957 2.45 62.03c-2.452-20.264.894-41.61 10.756-59.532 4.763.054 9.524.121 14.288.179 5.757.073 11.807-1.636 11.066 6.204-1.795 18.971-10.708 37.671-1.376 56.317 6.123 12.234 19.971 14.055 32.323 13.841 11.007-.192 22.358-2.571 27.422-13.456 7.411-15.931 2.739-34.001.395-50.421-.737-5.166-2.33-12.374 4.52-12.374h17.051c5.063 0 8.566 15.372 9.658 19.741 2.458 9.829 2.871 19.991 2.871 30.079" fill="url(#d)"/>
    <path d="M13.842 83.873c0 2.83 9.374 10.294 11.391 12.021 10.726 9.183 24.172 14.539 38.305 15.052 14.944.539 29.649-3.849 42.247-11.796 4.328-2.729 8.4-5.854 12.21-9.27.515-.461 3.912-4.399 4.675-4.179.612.177-12.533 14.285-13.504 15.072-12.204 9.93-27.383 15.891-43.197 15.891-14.793 0-28.845-5.701-39.604-15.808-3.493-3.28-12.523-11.481-12.523-16.983" fill="#ffa3a3"/>
    <path d="M34.692 64.009c.196 2.275 6.695 7.454 8.483 8.884 8.192 6.55 18.279 8.777 28.609 7.948 9.901-.796 26.275-5.766 29.778-16.91-3.592 11.425-14.2 19.624-25.682 21.923-15.078 3.015-39.553-3-41.188-21.845" fill="#b20d0d"/>
    <path d="M102.4 8.009c2.229-4.608 16.587 7.405 16.066 9.742.063-.283-4.482-2.673-5.126-2.601-1.48.167 6.305 14.689 7.322 14.479-3.646.757-11.687-5.402-13.663-8.28-1.714-2.495-6.164-10.088-4.599-13.34M19.027 34.021c-1.422-1.771-3.179-3.533-5.267-4.493-4.374-2.012-3.681 2.63-6.319 3.368 1.683-.471 4.898-27.082 11.962-19.839 4.221 4.326 13.22 27.401-.376 20.964" fill="#fff"/>
  </g>
</svg>
