<svg width="44" height="44" viewBox="0 0 44 44" fill="none" xmlns="http://www.w3.org/2000/svg">
<g clip-path="url(#clip0)">
<path d="M42.478 19.2853C42.3376 18.4051 41.5102 17.8055 40.63 17.9459C39.7498 18.0863 39.1502 18.9137 39.2906 19.7939C39.2921 19.8036 39.2937 19.8131 39.2954 19.8227C40.9389 29.4974 34.4283 38.6726 24.7536 40.3161C15.0788 41.9596 5.90367 35.449 4.26018 25.7742C2.61669 16.0995 9.12738 6.92432 18.802 5.28083C24.7518 4.27015 30.8078 6.34844 34.8832 10.7996L27.7338 13.1816C26.888 13.463 26.4306 14.3767 26.712 15.2224C26.7121 15.2226 26.7122 15.2229 26.7122 15.2231C26.9937 16.0689 27.9073 16.5262 28.7531 16.2449C28.7534 16.2448 28.7536 16.2447 28.7537 16.2447L38.4369 13.017C39.0962 12.7975 39.5409 12.1805 39.5408 11.4855V1.80237C39.5408 0.911025 38.8183 0.188477 37.9269 0.188477C37.0356 0.188477 36.313 0.911025 36.313 1.80237V7.69774C28.0018 -0.207265 14.8559 0.122094 6.95085 8.43334C-0.954166 16.7446 -0.624901 29.8905 7.68645 37.7956C15.9978 45.7007 29.1436 45.3714 37.0487 37.06C41.5564 32.3206 43.5681 25.7346 42.478 19.2853Z" fill="#90A0B7"/>
</g>
<defs>
<clipPath id="clip0">
<rect x="0.336426" y="0.188477" width="43.327" height="43.327" fill="white"/>
</clipPath>
</defs>
</svg>
