<svg width="30" height="30" viewBox="0 0 30 30" fill="none" xmlns="http://www.w3.org/2000/svg">
<path d="M15 0C6.72848 0 0 6.72848 0 15C0 23.2715 6.72848 30 15 30C23.2715 30 30 23.2715 30 15C30 6.72848 23.2715 0 15 0ZM25.1087 18.8889C23.087 18.8889 21.913 17.3237 21.913 17.3237C21.913 17.3237 20.9348 21.5217 16.3043 21.5217C15.3913 21.5217 13.9565 20.9759 13.9565 20.9759L16.6761 27.2648C16.1263 27.3391 15.57 27.3913 15 27.3913C13.5933 27.3913 12.2465 27.1454 10.9859 26.7137L4.71978 9.68544C4.71978 9.68544 4.26326 8.90283 4.98065 8.70717C5.69804 8.51152 8.50239 7.92457 8.50239 7.92457C8.50239 7.92457 9.46435 7.60239 9.6763 8.25065C10.0024 9.09848 12.3261 15.4976 12.3261 15.4976C12.3261 15.4976 13.4348 17.6087 16.5652 17.6087C19.6304 17.6087 20.413 15.3672 20.2826 15.0411C19.5 13.0846 17.0263 7.305 17.0263 7.305C17.0263 7.305 16.635 6.58761 17.548 6.39196C18.4611 6.1963 20.0263 5.93543 20.0263 5.93543C20.0263 5.93543 20.747 5.82913 21.0698 6.45717C21.5511 7.39435 24.4565 13.802 24.4565 13.802C24.4565 13.802 25.1739 15.6933 26.6087 15.6933C26.9113 15.6933 27.1526 15.6633 27.36 15.6254C27.3065 16.6917 27.133 17.7261 26.8272 18.705C26.4398 18.8263 25.9278 18.8889 25.1087 18.8889Z" fill="#90A0B7"/>
</svg>
