<svg width="160" height="240" viewBox="0 0 160 240" fill="none" xmlns="http://www.w3.org/2000/svg">
<rect width="160" height="240" fill="#ECEFF1"/>
<g filter="url(#filter0_f)">
<path d="M138.306 156.78C134.826 154.03 130.586 152.05 125.986 151.09L104.056 146.69C101.756 146.25 100.096 144.19 100.096 141.79V136.76C101.506 134.78 102.836 132.15 104.226 129.4C105.306 127.27 106.936 124.06 107.746 123.23C112.186 118.77 116.476 113.76 117.806 107.3C119.046 101.24 117.826 98.06 116.396 95.5C116.396 89.11 116.196 81.11 114.686 75.29C114.506 67.41 113.076 62.98 109.476 59.1C106.936 56.35 103.196 55.71 100.186 55.2C99.006 55 97.376 54.72 96.776 54.4C91.446 51.52 86.176 50.11 79.886 50C66.716 50.54 50.526 58.92 45.106 73.86C43.426 78.41 43.596 85.88 43.736 91.88L43.606 95.49C42.316 98.01 41.046 101.21 42.296 107.29C43.616 113.76 47.906 118.78 52.426 123.3C53.166 124.06 54.836 127.3 55.936 129.44C57.346 132.18 58.686 134.8 60.096 136.77V141.8C60.096 144.19 58.426 146.25 56.116 146.7L34.166 151.1C29.596 152.07 25.356 154.03 21.886 156.78C20.806 157.65 20.126 158.92 20.016 160.3C19.906 161.68 20.366 163.03 21.296 164.06C36.236 180.54 57.666 190 80.096 190C102.526 190 123.966 180.55 138.896 164.06C139.826 163.03 140.296 161.67 140.176 160.29C140.066 158.91 139.386 157.64 138.306 156.78Z" fill="#455A64"/>
</g>
<path d="M81.3229 139.107H78.2753C76.129 139.107 74.3848 140.852 74.3848 142.998V147.206C74.3848 149.353 76.129 151.097 78.2753 151.097H81.3229C83.4693 151.097 85.2134 149.353 85.2134 147.206V142.998C85.2134 140.845 83.4693 139.107 81.3229 139.107Z" fill="#ECEFF1"/>
<path d="M59.8338 106.532L65.4556 107.232C67.2388 107.453 68.9312 106.428 69.5731 104.749C70.3836 102.628 71.5119 100.956 72.9579 99.7365C75.007 98.0117 77.5552 97.1428 80.6028 97.1428C83.7606 97.1428 86.2765 97.9728 88.144 99.6263C90.0114 101.286 90.9387 103.27 90.9387 105.598C90.9387 107.271 90.4135 108.801 89.363 110.189C88.6822 111.071 86.5878 112.925 83.0928 115.759C79.5913 118.593 77.2635 121.147 76.0963 123.417C74.9032 125.738 74.4882 128.313 74.3845 130.893C74.2938 133.104 76.0574 134.946 78.275 134.946H81.4523C83.4754 134.946 85.1483 133.396 85.3299 131.386C85.4596 129.94 85.6995 128.844 86.0627 128.099C86.6721 126.821 88.2478 125.135 90.7767 123.034C95.6722 118.982 98.8624 115.779 100.36 113.418C101.852 111.064 102.604 108.568 102.604 105.929C102.604 101.163 100.574 96.9807 96.5087 93.3884C92.4496 89.7961 86.9769 88 80.1036 88C73.5675 88 68.2958 89.7702 64.2755 93.3171C60.8519 96.3387 58.7704 99.918 58.0377 104.049C57.8107 105.255 58.6342 106.383 59.8338 106.532Z" fill="#ECEFF1"/>
<defs>
<filter id="filter0_f" x="5" y="35" width="150.194" height="170" filterUnits="userSpaceOnUse" color-interpolation-filters="sRGB">
<feFlood flood-opacity="0" result="BackgroundImageFix"/>
<feBlend mode="normal" in="SourceGraphic" in2="BackgroundImageFix" result="shape"/>
<feGaussianBlur stdDeviation="7.5" result="effect1_foregroundBlur"/>
</filter>
</defs>
</svg>
