<svg width="160" height="240" viewBox="0 0 160 240" fill="none" xmlns="http://www.w3.org/2000/svg">
<rect width="160" height="240" fill="#ECEFF1"/>
<path d="M80 201C124.183 201 160 165.183 160 121C160 76.8172 124.183 41 80 41C35.8172 41 0 76.8172 0 121C0 165.183 35.8172 201 80 201Z" fill="#ECEFF1"/>
<path d="M138.019 167.79C134.545 165.04 130.311 163.06 125.719 162.1L103.824 157.7C101.528 157.25 99.8707 155.19 99.8707 152.8V147.1C121.685 145.01 124.83 140.55 124.83 136C124.83 122.55 115.905 91.32 114.437 86.24C114.247 78.39 112.82 73.98 109.236 70.11C106.7 67.36 102.966 66.72 99.9606 66.21C98.7825 66 97.1551 65.73 96.5561 65.4C91.2347 62.52 85.9732 61.12 79.6934 61C66.5447 61.54 50.3809 69.92 44.8499 85.24C44.4505 86.67 34.9759 120.49 34.9759 136C34.9759 142.47 42.2741 145.88 59.9354 147.44V152.8C59.9354 155.19 58.2681 157.25 55.9619 157.7L34.0474 162.1C29.4848 163.07 25.2516 165.03 21.7873 167.78C20.709 168.65 20.0301 169.92 19.9203 171.3C19.8105 172.68 20.2697 174.03 21.1982 175.06C36.114 191.55 57.5094 201 79.9031 201C102.297 201 123.702 191.55 138.608 175.06C139.536 174.03 140.006 172.67 139.886 171.29C139.776 169.92 139.097 168.65 138.019 167.79Z" fill="#455A64"/>
</svg>
