<svg width="160" height="240" viewBox="0 0 160 240" fill="none" xmlns="http://www.w3.org/2000/svg">
<rect width="160" height="240" fill="#ECEFF1"/>
<path d="M80 197C124.183 197 160 161.183 160 117C160 72.8172 124.183 37 80 37C35.8172 37 0 72.8172 0 117C0 161.183 35.8172 197 80 197Z" fill="#ECEFF1"/>
<path d="M138.017 163.78C134.543 161.03 130.309 159.05 125.717 158.09L103.822 153.69C101.526 153.25 99.8688 151.19 99.8688 148.79V143.76C101.276 141.78 102.604 139.15 103.992 136.4C105.07 134.27 106.698 131.06 107.506 130.23C111.939 125.77 116.222 120.76 117.55 114.3C118.788 108.24 117.57 105.06 116.142 102.5C116.142 96.11 115.943 88.11 114.435 82.29C114.255 74.41 112.828 69.98 109.234 66.1C106.698 63.35 102.964 62.71 99.9586 62.2C98.7805 62 97.1532 61.72 96.5541 61.4C91.2328 58.52 85.9713 57.11 79.6915 57C66.5428 57.54 50.379 65.92 44.9677 80.86C43.2905 85.41 43.4602 92.88 43.6 98.88L43.4702 102.49C42.1822 105.01 40.9143 108.21 42.1623 114.29C43.4801 120.76 47.7632 125.78 52.2759 130.3C53.0147 131.06 54.682 134.3 55.7802 136.44C57.1879 139.18 58.5258 141.8 59.9335 143.77V148.8C59.9335 151.19 58.2662 153.25 55.9599 153.7L34.0454 158.1C29.4828 159.07 25.2497 161.03 21.7853 163.78C20.7071 164.65 20.0282 165.92 19.9183 167.3C19.8085 168.68 20.2678 170.03 21.1963 171.06C36.1121 187.54 57.5074 197 79.9011 197C102.295 197 123.7 187.55 138.606 171.06C139.534 170.03 140.004 168.67 139.884 167.29C139.774 165.91 139.095 164.64 138.017 163.78Z" fill="#455A64"/>
</svg>
