<svg width="8" height="8" viewBox="0 0 8 8" fill="none" xmlns="http://www.w3.org/2000/svg">
<path d="M4.73294 3.99998L7.84799 0.884843C8.05072 0.682216 8.05072 0.354597 7.84799 0.15197C7.64537 -0.0506567 7.31775 -0.0506567 7.11512 0.15197L3.99997 3.26711L0.884917 0.15197C0.682195 -0.0506567 0.354669 -0.0506567 0.152042 0.15197C-0.0506806 0.354597 -0.0506806 0.682216 0.152042 0.884843L3.26709 3.99998L0.152042 7.11511C-0.0506806 7.31774 -0.0506806 7.64536 0.152042 7.84799C0.253023 7.94906 0.385799 7.99984 0.518479 7.99984C0.65116 7.99984 0.783841 7.94906 0.884917 7.84799L3.99997 4.73285L7.11512 7.84799C7.21619 7.94906 7.34888 7.99984 7.48156 7.99984C7.61424 7.99984 7.74692 7.94906 7.84799 7.84799C8.05072 7.64536 8.05072 7.31774 7.84799 7.11511L4.73294 3.99998Z" fill="white"/>
</svg>
